<?xml version="1.0" standalone="no"?><svg xmlns="http://www.w3.org/2000/svg" viewBox="0 0 1440 320"><path fill="#f0c27d" fill-opacity="1" d="M0,224L30,213.3C60,203,120,181,180,186.7C240,192,300,224,360,245.3C420,267,480,277,540,277.3C600,277,660,267,720,261.3C780,256,840,256,900,245.3C960,235,1020,213,1080,192C1140,171,1200,149,1260,160C1320,171,1380,213,1410,234.7L1440,256L1440,320L1410,320C1380,320,1320,320,1260,320C1200,320,1140,320,1080,320C1020,320,960,320,900,320C840,320,780,320,720,320C660,320,600,320,540,320C480,320,420,320,360,320C300,320,240,320,180,320C120,320,60,320,30,320L0,320Z"></path></svg>