<?xml version="1.0" standalone="no"?><svg xmlns="http://www.w3.org/2000/svg" viewBox="0 0 1440 320"><path fill="#F2D189" fill-opacity="1" d="M0,96L21.8,96C43.6,96,87,96,131,90.7C174.5,85,218,75,262,85.3C305.5,96,349,128,393,144C436.4,160,480,160,524,144C567.3,128,611,96,655,101.3C698.2,107,742,149,785,181.3C829.1,213,873,235,916,224C960,213,1004,171,1047,138.7C1090.9,107,1135,85,1178,74.7C1221.8,64,1265,64,1309,58.7C1352.7,53,1396,43,1418,37.3L1440,32L1440,0L1418.2,0C1396.4,0,1353,0,1309,0C1265.5,0,1222,0,1178,0C1134.5,0,1091,0,1047,0C1003.6,0,960,0,916,0C872.7,0,829,0,785,0C741.8,0,698,0,655,0C610.9,0,567,0,524,0C480,0,436,0,393,0C349.1,0,305,0,262,0C218.2,0,175,0,131,0C87.3,0,44,0,22,0L0,0Z"></path></svg>